# xmcd
#
# Track frame offsets:
#       150
#       6767
#       23111
#       37133
#       46332
#       62019
#       81781
#       97284
#       105737
#       117584
#       144474
#       150391
#       164684
#       171336
#       192955
#       212096
#       227564
#       241593
#       261460
#
# Disc length: 3761 seconds
#
# Revision: 0
# Processed by: cddbd v1.5.2PL0 Copyright (c) Steve Scherf et al.
# Submitted via: WaveLab 4.01
#
DISCID=090eaf13
DTITLE=Ingolf Bauer - Lauter Leipzger Lumpenlieder
DYEAR=2006
DGENRE=Pop
TTITLE0=Eingemeindung
TTITLE1=Knauthainer Hochzeit
TTITLE2=Der Gesang
TTITLE3=Leise zieht durch mein Gem¸t
TTITLE4=Bin im Garten wieder
TTITLE5=Lumpenlieder, de erschdn
TTITLE6=Gose-Lied
TTITLE7=Ohne Lieb und ohne Wein
TTITLE8=Leipz'ger Bagarohle
TTITLE9=Lumpenlieder, de zweedn
TTITLE10=Leipz'ger Pferdebahn
TTITLE11=Die Tante aus Leipzig-Lindenau
TTITLE12=In dorr reitznhainer Straﬂe
TTITLE13=Lumpenlieder, de driddn
TTITLE14=Monte Zschochere
TTITLE15=Wo de Pleiﬂe bl‰ddschord
TTITLE16=Weiﬂe Elster
TTITLE17=Leipz'ger R‰bchn
TTITLE18=Ode an die Freude
EXTD=
EXTT0=
EXTT1=
EXTT2=
EXTT3=
EXTT4=
EXTT5=
EXTT6=
EXTT7=
EXTT8=
EXTT9=
EXTT10=
EXTT11=
EXTT12=
EXTT13=
EXTT14=
EXTT15=
EXTT16=
EXTT17=
EXTT18=
PLAYORDER=
